<svg width="64" height="49" viewBox="0 0 64 49" fill="none" xmlns="http://www.w3.org/2000/svg">
<path fill-rule="evenodd" clip-rule="evenodd" d="M32 0C49.6701 0 64 10.8442 64 24.2157C64 37.5871 49.6701 48.4313 32 48.4313C14.3299 48.4313 0 37.5871 0 24.2157C0 10.8442 14.3299 0 32 0Z" fill="#F7E123"/>
<path fill-rule="evenodd" clip-rule="evenodd" d="M32.0045 1.02148V1.02531H32.0032H32.0007V1.02148C23.3956 1.02171 15.6159 3.65338 9.9954 7.90667C4.45519 12.0992 1.02757 17.867 1.02734 24.2146H1.03141V24.2155V24.217H1.02734C1.0278 30.5643 4.45519 36.3316 9.99502 40.5242C15.6158 44.778 23.3961 47.4095 32.0019 47.4097V47.4057H32.0032H32.0058V47.4097C40.6108 47.4093 48.3905 44.7777 54.011 40.5244C59.5513 36.3319 62.9791 30.5641 62.9791 24.2164H62.9753V24.2155V24.2141H62.9791C62.9786 17.8669 59.5513 12.0994 54.0114 7.90692C48.3906 3.65338 40.6102 1.02148 32.0045 1.02148Z" fill="#353980"/>
<path fill-rule="evenodd" clip-rule="evenodd" d="M31.9969 7.32227V7.32515H31.996H31.9942V7.32227C25.9961 7.32254 20.5733 9.23929 16.6555 12.3372C12.7937 15.3909 10.4044 19.592 10.4043 24.2152H10.4071V24.2159V24.2169H10.4043C10.4046 28.84 12.7937 33.0408 16.6552 36.0944C20.5732 39.1925 25.9964 41.1094 31.9951 41.1095V41.1067H31.996H31.9978V41.1095C37.9959 41.1093 43.4188 39.1925 47.3365 36.0946C51.1983 33.0409 53.5877 28.8398 53.5877 24.2166H53.585V24.2159V24.2149H53.5877C53.5874 19.5918 51.1983 15.391 47.3368 12.3375C43.4188 9.23929 37.9955 7.32236 31.9969 7.32227Z" fill="#F7E123"/>
<path fill-rule="evenodd" clip-rule="evenodd" d="M32.4002 8.60742H32.0002H31.999H31.3307C28.7188 8.6728 26.2309 9.12032 23.9544 9.88033C23.4318 10.0548 22.9048 10.2531 22.3753 10.4736C21.8568 10.6895 21.3571 10.9197 20.8781 11.1622C19.64 11.7892 18.4928 12.5201 17.4567 13.3395L17.4554 13.3378V13.3405C16.9433 13.7453 16.4649 14.1653 16.0231 14.5982C15.5747 15.0372 15.1575 15.4933 14.774 15.964C12.9132 18.2485 11.7966 20.9288 11.6953 23.7885V24.2154V24.216V24.2173V24.6396C11.739 25.883 11.9746 27.0938 12.3801 28.2527C12.5296 28.6798 12.6993 29.0946 12.8878 29.4953C13.8789 31.6022 15.4514 33.5078 17.4563 35.0928L17.4738 35.1102C17.9819 35.5108 18.518 35.8913 19.0792 36.2487C19.6246 36.5961 20.2215 36.9346 20.8671 37.2621C23.9671 38.835 27.6492 39.768 31.6139 39.8249H31.9983H31.999H32.0011H32.6403C35.2623 39.7621 37.7594 39.3147 40.0438 38.552C40.5664 38.3775 41.0934 38.1792 41.623 37.9587C42.1414 37.7428 42.641 37.5127 43.1202 37.2701C44.3584 36.6431 45.5054 35.912 46.5415 35.0928L46.5428 35.0945V35.0918C47.0549 34.687 47.5333 34.267 47.9751 33.8341C48.4235 33.3951 48.8407 32.939 49.2243 32.4683C51.0831 30.1864 52.1996 27.5089 52.303 24.6526V24.2169V24.216V24.2151V23.7733C52.2576 22.5364 52.0217 21.3326 51.6182 20.1796C51.4687 19.7525 51.299 19.3377 51.1104 18.937C50.1195 16.8301 48.547 14.9246 46.542 13.3395L46.522 13.3194L46.5204 13.3181C46.0135 12.9189 45.4784 12.5399 44.919 12.1836C44.3736 11.8362 43.7768 11.4977 43.1311 11.1702C40.0351 9.59934 36.3591 8.66641 32.4002 8.60742Z" fill="#BBBDBF"/>
<path fill-rule="evenodd" clip-rule="evenodd" d="M32.3263 9.4336L32.3266 12.0984C32.9181 12.09 33.5083 12.0616 34.0925 12.0129C33.5588 11.016 32.966 10.1443 32.3263 9.4336ZM32.3266 12.7361L32.327 17.9417C33.6319 17.9398 34.9274 17.8987 36.1977 17.8192C35.7554 15.9111 35.1452 14.143 34.4049 12.6241C33.7187 12.6886 33.0231 12.7261 32.3266 12.7361ZM32.327 18.5809L32.3274 23.9408H36.9863C36.979 23.7019 36.9692 23.4633 36.9565 23.2251C36.8695 21.5896 36.6568 19.9794 36.3367 18.4493C35.0211 18.5341 33.6789 18.5784 32.327 18.5809ZM32.3274 24.5817L32.3278 30.1561C33.7313 30.1587 35.1245 30.2063 36.4882 30.2977C36.8577 28.4371 37.0183 26.503 36.9995 24.5817H32.3274ZM32.3278 30.795L32.3281 36.0029C33.0347 36.0134 33.7403 36.0519 34.4362 36.1184C35.3075 34.5294 35.9368 32.7704 36.3541 30.9282C35.0339 30.8421 33.6861 30.7971 32.3278 30.795ZM32.3281 36.6412L32.3284 39.0819C32.9907 38.3602 33.5754 37.5706 34.0862 36.7267C33.5047 36.6781 32.9169 36.6498 32.3281 36.6412ZM31.6884 39.0815L31.6882 36.6398C31.0978 36.6457 30.5084 36.6714 29.925 36.7172C30.4371 37.5645 31.0236 38.3572 31.6884 39.0815ZM31.6882 36.0011L31.6878 30.7971C30.3494 30.8084 29.0041 30.8614 27.6683 30.9573C28.0848 32.7837 28.7101 34.5279 29.5734 36.1051C30.271 36.0423 30.9787 36.0075 31.6882 36.0011ZM31.6878 30.1578L31.6874 24.5817H27.0151C26.9965 26.5125 27.1589 28.4562 27.5329 30.3251C28.9129 30.2242 30.3038 30.1688 31.6878 30.1578ZM31.6874 23.9408L31.687 18.5792C30.3535 18.5686 29.0135 18.5169 27.6831 18.4232C27.3599 19.9609 27.1449 21.5797 27.0575 23.2244C27.0448 23.4628 27.0354 23.7015 27.0281 23.9408H31.6874ZM31.687 17.9398L31.6866 12.7377C30.9884 12.7311 30.2917 12.697 29.6049 12.6359C28.8705 14.1447 28.2643 15.8989 27.8234 17.7912C29.1078 17.8799 30.4007 17.9291 31.687 17.9398ZM31.6866 12.0997L31.6864 9.43847C31.0459 10.1501 30.4525 11.0229 29.9187 12.0208C30.5035 12.0671 31.0948 12.0936 31.6866 12.0997ZM25.9543 36.7192C26.7171 36.5215 27.515 36.3644 28.3326 36.2486C28.5156 36.2227 28.6997 36.1988 28.8849 36.1769C28.0435 34.582 27.4322 32.8325 27.0233 31.0069C26.2163 31.0735 25.414 31.1561 24.6201 31.2547C23.4512 31.4001 22.302 31.5801 21.1846 31.7961C21.3181 32.0132 21.4578 32.2282 21.6041 32.4406C22.701 34.0333 24.1519 35.4881 25.9543 36.7192ZM28.423 36.8821C27.8307 36.966 27.2518 37.0713 26.6917 37.198C27.9492 37.9742 29.3616 38.6464 30.9276 39.1901C30.2847 38.4465 29.7169 37.6396 29.2204 36.7827C28.9526 36.8114 28.6866 36.8446 28.423 36.8821ZM35.1229 36.1933C36.1269 36.3172 37.1044 36.501 38.0291 36.7442C39.8506 35.507 41.3149 34.0419 42.4201 32.437C42.5779 32.2079 42.7284 31.9756 42.8717 31.7411C41.0366 31.388 39.0564 31.1301 36.9997 30.9736C36.5897 32.8173 35.9733 34.5843 35.1229 36.1933ZM37.2942 37.2189C36.4896 37.0332 35.6488 36.8921 34.7891 36.7955C34.2943 37.648 33.7292 38.4506 33.0893 39.1906C34.6424 38.6517 36.0444 37.9864 37.2942 37.2189ZM20.8424 31.211C22.0465 30.9721 23.2845 30.7752 24.5422 30.6189C25.3181 30.5225 26.1024 30.4415 26.891 30.3755C26.5187 28.4862 26.3564 26.5269 26.3745 24.5817H19.0589C19.0904 26.8594 19.6865 29.1267 20.8424 31.211ZM37.131 30.3441C39.2631 30.5094 41.3147 30.7825 43.2104 31.1568C44.3474 29.0874 44.9335 26.8397 44.965 24.5817H37.6403C37.6585 26.516 37.4985 28.4646 37.131 30.3441ZM19.0652 23.9408H26.3871C26.3944 23.6907 26.4043 23.441 26.4176 23.1918C26.5051 21.545 26.7193 19.9217 27.0411 18.3749C26.2018 18.3072 25.3673 18.2223 24.5422 18.1202C23.2872 17.9648 22.0519 17.7685 20.85 17.5309C19.7305 19.5619 19.1368 21.7498 19.0652 23.9408ZM37.6275 23.9408H44.9591C44.8884 21.769 44.3048 19.5997 43.2036 17.5838C41.2649 17.965 39.1633 18.2409 36.9794 18.4046C37.2977 19.9427 37.5093 21.5558 37.5965 23.1926C37.6097 23.4415 37.6201 23.691 37.6275 23.9408ZM21.1901 16.9452C22.3057 17.1602 23.453 17.3397 24.6201 17.4843C25.465 17.589 26.3197 17.6748 27.1792 17.7432C27.6134 15.8563 28.2093 14.0977 28.9323 12.5668C28.5284 12.5199 28.1286 12.4636 27.7354 12.3973C27.0978 12.2899 26.4764 12.157 25.8784 11.9993C24.0289 13.3132 22.5576 14.8496 21.4619 16.5161C21.3685 16.6583 21.2782 16.8012 21.1901 16.9452ZM36.8424 17.7751C38.9536 17.6205 40.9865 17.3599 42.8669 16.9997C42.7689 16.8378 42.6674 16.6771 42.5624 16.5175C41.4593 14.8399 39.9757 13.2941 38.1082 11.9743C37.146 12.232 36.1252 12.4246 35.0762 12.552C35.8057 14.095 36.4061 15.8702 36.8424 17.7751ZM26.5907 11.5165C26.9986 11.6113 27.4159 11.6947 27.8408 11.7664C28.2973 11.8434 28.7625 11.9069 29.2331 11.9571C29.7374 10.9788 30.2963 10.108 30.8992 9.37374C29.3003 9.97046 27.8643 10.6932 26.5907 11.5165ZM34.7772 11.9462C35.6786 11.8456 36.5597 11.6955 37.3998 11.4965C36.1325 10.681 34.705 9.96456 33.1168 9.37259C33.7173 10.1044 34.2743 10.9717 34.7772 11.9462ZM32.4002 8.60742H31.3307C29.6911 8.64769 27.092 10.3351 25.7508 11.2571C25.587 11.2111 25.425 11.1634 25.2654 11.1134C24.4611 10.8614 23.7123 10.5591 23.0416 10.2074L23.0414 10.2072C22.82 10.2918 22.5978 10.3809 22.3753 10.4736L22.2877 10.5103C22.4721 10.6177 22.6958 10.7484 22.743 10.7732C23.4499 11.144 24.2348 11.4612 25.0747 11.7243L25.0923 11.7297C23.365 13.0239 21.9736 14.5129 20.9174 16.1195C20.7773 16.3328 20.6433 16.5479 20.515 16.7652C20.2405 16.708 19.9677 16.6495 19.6977 16.5879C18.1564 16.2367 16.6899 15.8131 15.3326 15.3153C15.1792 15.4845 15.0298 15.6559 14.8852 15.8293L14.9981 15.8729L15.0184 15.8804C16.4335 16.4049 17.9581 16.8476 19.5545 17.2114C19.7636 17.2591 19.9742 17.3051 20.1857 17.3501C19.0751 19.427 18.4869 21.6587 18.4174 23.8946L11.6953 23.9011V24.216V24.542L18.4115 24.5356C18.4422 26.8585 19.0325 29.1693 20.1784 31.3002C19.9693 31.3448 19.7612 31.3909 19.5545 31.4382C17.9613 31.8023 16.44 32.2452 15.0273 32.7698C15.1757 32.9429 15.3285 33.1137 15.4856 33.282C16.8002 32.8066 18.2144 32.4007 19.6977 32.0617C19.9659 32.0004 20.2368 31.9412 20.5093 31.8842C20.6843 32.1784 20.87 32.4689 21.067 32.7549C22.119 34.2823 23.4824 35.6866 25.1545 36.8974C24.4818 37.1048 23.8434 37.347 23.2515 37.623C22.9896 37.745 22.7381 37.8732 22.4987 38.0068L22.4994 38.0081C22.7587 38.1143 23.0211 38.2166 23.2868 38.3143C23.3648 38.2758 23.4432 38.2384 23.5226 38.2014C24.2225 37.875 24.9941 37.5976 25.8154 37.3701C25.8313 37.3657 28.2686 39.0045 30.876 39.804C31.1208 39.8142 31.3668 39.8213 31.6141 39.8249H32.6403C34.3559 39.7845 36.7252 38.3178 38.1372 37.3897C39.045 37.6443 39.894 37.9599 40.657 38.3367C40.9173 38.2411 41.1786 38.14 41.4407 38.0333L41.4439 38.0277C40.6587 37.5912 39.7707 37.2235 38.813 36.925C40.5045 35.707 41.8817 34.2916 42.9425 32.7513C43.1509 32.4485 43.3473 32.1409 43.5314 31.8289C45.3796 32.2156 47.065 32.7018 48.5135 33.2819C48.6779 33.1054 48.8375 32.9266 48.9922 32.7454C47.5375 32.1864 45.5799 31.6142 43.8586 31.2457C44.9861 29.13 45.5671 26.8388 45.5978 24.5356H52.303V24.216V23.8946H45.5923C45.5236 21.6776 44.9449 19.465 43.8522 17.4033C45.7652 16.9956 47.5044 16.482 48.9874 15.8692L49.1094 15.8249C48.9646 15.6515 48.8154 15.4804 48.6621 15.3117C47.1795 15.9167 45.4401 16.4217 43.5269 16.8202C43.389 16.5847 43.244 16.3517 43.0922 16.1209C42.0279 14.5022 40.6238 13.0029 38.8779 11.7018C39.8111 11.4067 40.6766 11.0456 41.4439 10.6177L41.6753 10.4968C41.4188 10.3891 41.1594 10.2858 40.8966 10.1866C40.0965 10.6068 39.1938 10.956 38.2224 11.2339C36.727 10.2111 35.003 9.32707 33.05 8.62485C32.8342 8.61641 32.6178 8.61064 32.4002 8.60742Z" fill="#4782A5"/>
<path fill-rule="evenodd" clip-rule="evenodd" d="M42.68 26.8454C42.6712 26.8982 42.6616 26.9506 42.652 27.0033L42.6515 27.0031C42.599 27.2893 42.5398 27.5531 42.4741 27.7937H42.4716C42.1077 29.1254 41.4601 30.3422 40.5297 31.4419L40.5303 31.4424L40.5292 31.4438L40.5217 31.4514C40.274 31.7434 40.0131 32.018 39.7395 32.274C39.4704 32.5258 39.1825 32.7638 38.8762 32.9869C37.333 34.1106 35.4714 34.7103 33.275 34.7103H33.2723V34.7078C32.2758 34.7075 31.3389 34.563 30.4692 34.3C30.3087 34.2514 30.1687 34.2058 30.0501 34.1638C29.3368 33.9103 28.6735 33.5769 28.0647 33.1791L28.0597 33.1766L28.0586 33.1758L28.0588 33.1754C27.9677 33.1158 27.8568 33.0386 27.7282 32.9465C27.5988 32.8537 27.4907 32.7732 27.404 32.705C27.2903 32.6156 27.1791 32.524 27.0697 32.4294V34.0463V34.6873H26.4272H25.1445L24.502 34.6874V34.0463V28.474V27.833H25.1445H26.4271H26.4272H27.0697V28.324C27.831 29.7851 28.9753 30.8315 30.2794 31.4496C31.4872 32.0222 32.8315 32.2307 34.1354 32.0641C35.4365 31.898 36.6996 31.3581 37.748 30.4341C38.7692 29.534 39.5911 28.264 40.0532 26.6123C38.9459 26.6695 37.8058 26.8577 36.6442 27.0496C34.0083 27.4853 31.2641 27.9389 28.2567 27.0231L27.7986 26.8837L27.8025 26.4072L27.8103 25.4436L27.8112 25.3281L27.8154 24.8041L27.8251 23.6231L27.8323 22.7441L28.6659 23.0197C31.2402 23.8707 33.8216 23.449 36.4028 23.0274C37.4521 22.856 38.5019 22.6849 39.568 22.5927C38.7653 20.8761 37.6088 19.7309 36.3095 19.0786C35.4629 18.6537 34.5533 18.4347 33.6406 18.4007C32.7223 18.3666 31.7973 18.5194 30.9268 18.8374C29.3204 19.4243 27.9083 20.5734 27.0697 22.1464V22.6345H26.4272H26.4271H25.1445H24.502V21.9936V16.4212V15.7804L25.1445 15.7803H26.4272L27.0697 15.7804V16.4212V17.9314C27.3598 17.6825 27.6767 17.4477 28.0258 17.2258L28.0284 17.2233L28.0308 17.2217L28.0313 17.2225C28.2451 17.087 28.4638 16.9605 28.6868 16.8441C28.9277 16.7185 29.1566 16.6102 29.3733 16.5195H29.3759C30.5739 16.0185 31.8971 15.7676 33.3448 15.7676H33.3465V15.7701C34.8414 15.7704 36.1815 16.101 37.3705 16.6891C37.558 16.7818 37.7481 16.885 37.9394 16.9974C38.8904 17.5561 39.7332 18.2825 40.4715 19.1343C41.0183 19.7651 41.4714 20.3994 41.8287 21.063C42.1202 21.6044 42.3488 22.1648 42.5124 22.7573C42.571 22.7663 42.6237 22.7746 42.6698 22.7828C43.1847 22.8732 43.745 23.016 44.2774 23.1802L44.7318 23.3204L44.7317 23.7911V24.7724V24.9619V25.427V25.6899V26.5885V27.4864L43.8808 27.1918L43.859 27.1843C43.7477 27.1458 43.6392 27.1098 43.5342 27.0765C43.4232 27.0412 43.3227 27.0106 43.2336 26.9849C43.0326 26.9271 42.8482 26.8811 42.68 26.8454Z" fill="#1A2128"/>
<path fill-rule="evenodd" clip-rule="evenodd" d="M16.0598 24.9569C16.6844 25.1138 17.0452 24.7596 17.0926 24.2921C17.107 24.2353 17.1147 24.1783 17.115 24.1229C17.1152 24.0649 17.1082 23.998 17.0948 23.9243C17.0209 23.4454 16.6482 23.1548 16.0598 23.2598V24.9569ZM16.3561 26.7138L16.356 27.1924H16.7757L16.776 27.8333L16.7764 28.5637L16.7767 29.2046H16.1364H15.5795H15.0363H14.9369H14.3938H13.1112H12.4716L12.4712 28.5637L12.4708 27.8333L12.4706 27.1924H12.9141L12.905 23.2552H12.4492L12.4589 22.6067L12.4712 21.7799L12.4807 21.1465H13.1112H14.3938H14.9369H15.0363H15.2824H15.5795V21.1497C16.3035 21.1649 17.0277 21.2458 17.6289 21.5387C18.4109 21.9197 18.9413 22.5986 18.9518 23.8063C18.9611 24.8757 18.6601 25.6196 18.0687 26.1072C17.6312 26.468 17.0589 26.659 16.3561 26.7138Z" fill="#F7E123"/>
<path fill-rule="evenodd" clip-rule="evenodd" d="M23.596 24.0934H22.7178H22.0835L22.0778 23.4575L22.0766 23.3093L21.9693 23.3107V27.1552H22.4346V27.7961V28.5637V29.2046H21.7921H21.1928H20.6496H20.5503H20.0071H19.9053H19.2628V29.2021H18.7714H18.1289V28.5637V27.7961V27.1552H18.5909V23.2924H18.1289V22.6514V21.7874V21.149H18.7714H19.2628V21.1465H19.9053H20.5503H21.1928V21.149H23.596H24.2385V21.7874V23.4525V24.0934H23.596Z" fill="#F7E123"/>
<path fill-rule="evenodd" clip-rule="evenodd" d="M41.4944 25.6149C41.4857 25.6677 41.476 25.7201 41.4664 25.7728L41.466 25.7727C41.4134 26.0588 41.3542 26.3226 41.2885 26.5632H41.2861C40.9222 27.895 40.2745 29.1117 39.3441 30.2115L39.3448 30.212L39.3436 30.2134L39.3362 30.2209C39.0884 30.513 38.8275 30.7875 38.554 31.0435C38.2849 31.2953 37.9969 31.5333 37.6907 31.7564C36.1474 32.8801 34.2858 33.4799 32.0894 33.4799H32.0867V33.4773C31.0903 33.4771 30.1534 33.3326 29.2836 33.0695C29.1231 33.021 28.9832 32.9753 28.8646 32.9333C28.1512 32.6798 27.4879 32.3464 26.8792 31.9487L26.8742 31.9461L26.873 31.9453L26.8733 31.9449C26.7822 31.8853 26.6713 31.8082 26.5426 31.716C26.4132 31.6232 26.3052 31.5427 26.2184 31.4745C26.1047 31.3852 25.9935 31.2935 25.8842 31.1989V32.8159V33.4568H25.2417H23.9589L23.3164 33.4569V32.8159V27.2435V26.6026H23.9589H25.2415H25.2417H25.8842V27.0935C26.6454 28.5546 27.7898 29.601 29.0938 30.2191C30.3016 30.7918 31.6459 31.0002 32.9499 30.8337C34.251 30.6676 35.514 30.1276 36.5624 29.2036C37.5836 28.3035 38.4055 27.0336 38.8676 25.3818C37.7603 25.439 36.6202 25.6272 35.4587 25.8191C32.8228 26.2548 30.0786 26.7084 27.0712 25.7927L26.6131 25.6532L26.6169 25.1767L26.6247 24.2132L26.6256 24.0977L26.6299 23.5736L26.6395 22.3926L26.6467 21.5136L27.4803 21.7892C30.0547 22.6403 32.6361 22.2185 35.2172 21.7969C36.2666 21.6255 37.3163 21.4544 38.3824 21.3622C37.5798 19.6457 36.4232 18.5004 35.1239 17.8481C34.2773 17.4233 33.3678 17.2042 32.455 17.1702C31.5367 17.1361 30.6117 17.2889 29.7412 17.607C28.1348 18.1938 26.7228 19.3429 25.8842 20.9159V21.404H25.2417H25.2415H23.9589H23.3164V20.7631V15.1907V14.5499L23.9589 14.5498H25.2417L25.8842 14.5499V15.1907V16.7009C26.1742 16.452 26.4911 16.2173 26.8402 15.9954L26.8428 15.9928L26.8453 15.9913L26.8458 15.992C27.0595 15.8565 27.2782 15.73 27.5013 15.6136C27.7421 15.488 27.9711 15.3797 28.1878 15.2891H28.1903C29.3884 14.788 30.7116 14.5371 32.1592 14.5371H32.161V14.5397C33.6559 14.5399 34.9959 14.8705 36.185 15.4586C36.3725 15.5513 36.5625 15.6545 36.7539 15.767C37.7048 16.3256 38.5477 17.052 39.2859 17.9038C39.8327 18.5347 40.2858 19.1689 40.6432 19.8326C40.9346 20.3739 41.1632 20.9344 41.3268 21.5268C41.3854 21.5358 41.4381 21.5441 41.4842 21.5523C41.9992 21.6427 42.5594 21.7855 43.0918 21.9497L43.5462 22.09L43.5461 22.5607V23.5419V23.7314V24.1965V24.4594V25.358V26.256L42.6953 25.9614L42.6734 25.9538C42.5621 25.9154 42.4537 25.8793 42.3487 25.846C42.2377 25.8108 42.1372 25.7801 42.048 25.7545C41.847 25.6967 41.6626 25.6506 41.4944 25.6149Z" fill="#F6E125"/>
<path fill-rule="evenodd" clip-rule="evenodd" d="M50.9108 21.1159L51.5506 21.1195V21.7543V22.6462V23.2872H51.093L51.1386 26.3028V26.3054L51.1388 26.3334V26.3434C51.1379 26.4367 51.1298 26.5278 51.1151 26.6137C51.1022 26.689 51.081 26.7763 51.053 26.8734C50.6911 28.1215 49.8076 29.0197 48.4873 29.2712L45.8827 29.2784L45.2439 29.2802L45.2427 28.64L45.2405 27.3147L45.2395 26.6571L45.8981 26.6763L46.6932 26.6997L47.2874 26.7172L47.3086 27.1624L47.7397 27.166L47.7366 26.7609L47.5666 26.7473L47.5165 26.7399C46.7014 26.6108 46.1561 26.2893 45.7842 25.845C45.4207 25.4106 45.2489 24.8854 45.161 24.321L45.1535 24.2725V24.2233L45.1557 23.2872H44.7422V22.6462V21.7543V21.1094L45.3897 21.1159L47.0046 21.1324C47.1481 21.134 47.2916 21.1344 47.4353 21.1348L47.4057 23.23L47.1109 23.2245L47.106 24.3105C47.1041 24.7795 47.6598 25.1636 47.9938 25.1672L47.9826 23.2409L47.485 23.2315L47.5146 21.1351C48.6455 21.1368 49.7796 21.1098 50.9108 21.1159Z" fill="#F7E123"/>
<path fill-rule="evenodd" clip-rule="evenodd" d="M19.8002 28.5654H18.7656V27.7978H19.2276V22.653H18.7656V21.7891H19.8002V28.5654ZM19.8995 28.5654H20.5445V21.7891H19.8995V28.5654ZM23.5902 23.4541H22.712L22.7051 22.6646L21.3209 22.6818V27.7978H21.7863V28.5654H20.6438V21.7891H23.5902V23.4541Z" fill="#1A2128"/>
<path fill-rule="evenodd" clip-rule="evenodd" d="M40.9482 24.888C40.7673 26.7311 40.0683 28.3713 38.8518 29.8061C37.1901 31.7653 34.9518 32.8386 32.0934 32.8386C30.2293 32.8386 28.5934 32.3006 27.2345 31.4125C26.4762 30.9168 25.8132 30.3174 25.2456 29.6156V32.8156H23.9629V27.2432H25.2455H25.2456V27.2435C28.3865 33.5662 38.0454 33.0237 39.6862 24.7265C35.7947 24.6733 31.7667 26.5536 27.2608 25.1814L27.2687 24.2178C32.869 25.3415 36.1531 23.8498 39.5432 23.7429V23.0303C36.2907 23.1237 32.8498 24.5179 27.2738 23.5783L27.2834 22.3973C31.3644 23.7465 35.309 22.094 39.3215 21.9424C36.5544 14.4058 27.9359 15.4301 25.2456 20.7625V20.7628H25.2455H23.9629V15.1904H25.2456V18.3276C25.7649 17.6268 26.388 17.0418 27.1881 16.5333C28.6094 15.6297 30.2678 15.1777 32.1632 15.1777C34.9443 15.1777 37.1453 16.4062 38.8054 18.3217C39.8366 19.5113 40.5106 20.7071 40.8126 22.1045C41.4454 22.1654 42.2048 22.3437 42.9076 22.5604V23.5416C42.2499 23.3008 41.6109 23.1582 40.9756 23.0858V23.7903C41.6005 23.8548 42.2397 23.9821 42.9076 24.1962V25.3577C42.0684 25.0662 41.4084 24.9175 40.9482 24.888Z" fill="#1A2128"/>
<path fill-rule="evenodd" clip-rule="evenodd" d="M49.8753 21.7492L50.9042 21.7548V22.6468H50.4395L50.4946 26.3109C50.5048 26.6696 50.2476 27.275 49.8753 27.7779V21.7492ZM49.126 21.7451L49.776 21.7487V27.9059C49.5791 28.1491 49.3556 28.3583 49.126 28.4891V21.7451ZM48.4179 25.2555L48.4002 22.6353L47.8878 22.6302V21.7383L49.0266 21.7446V28.5406C48.8921 28.6033 48.7566 28.6371 48.6229 28.633L45.8788 28.6406L45.8766 27.3152L46.6717 27.3386L46.6935 27.7963L48.3808 27.8103L48.368 26.1699L47.613 26.1095C46.3259 25.9057 45.9328 25.1431 45.7896 24.2238L45.7932 22.6468H45.3809V21.7548L46.9958 21.7714V22.6633H46.7042L46.6973 24.3144C46.7653 24.7563 47.062 25.0696 47.587 25.2544L48.4179 25.2555Z" fill="#1A2128"/>
<path fill-rule="evenodd" clip-rule="evenodd" d="M14.9397 28.5654H13.1139L13.1135 27.8349H13.5583L13.5463 22.6159H13.1016L13.1139 21.7891H14.9397V28.5654ZM15.7321 25.2745C16.8029 25.414 17.5076 24.8542 17.5104 23.9941C17.5138 22.9885 16.7872 22.5997 15.7321 22.6882V25.2745ZM15.7191 26.0908L15.7187 27.8349H16.1388L16.1392 28.5654H15.039V21.7891H15.2851C16.7691 21.7891 18.2988 21.9867 18.3146 23.8129C18.3295 25.5333 17.4256 26.1403 15.7191 26.0908Z" fill="#1A2128"/>
<path fill-rule="evenodd" clip-rule="evenodd" d="M40.0553 41.742L40.5878 44.2409L41.3222 44.0852L41.4308 44.5944L39.4662 45.0108L39.3577 44.5018L40.0901 44.3464L39.5576 41.8475L40.0553 41.742ZM42.8669 40.9929L43.6648 43.9634L41.8524 44.4478L41.7173 43.9451L43.0382 43.592L42.8613 42.9337L41.6341 43.2616L41.4998 42.7617L42.727 42.4336L42.5098 41.6251L41.1447 41.99L41.0102 41.4892L42.8669 40.9929ZM44.3219 40.4054L45.2396 42.7905L45.9406 42.5221L46.1276 43.008L44.2526 43.726L44.0656 43.2401L44.7646 42.9724L43.8468 40.5873L44.3219 40.4054ZM47.1852 39.102L48.4881 41.8891L48.0477 42.0939L47.1796 40.2367L47.1215 42.5249L46.6582 42.7402L45.3554 39.9532L45.7957 39.7483L46.6454 41.5659L46.7201 39.3184L47.1852 39.102ZM48.6092 39.5854L48.0904 39.6944C47.9673 39.3634 47.9373 39.0832 48.0011 38.8524C48.0651 38.6222 48.2071 38.4354 48.4269 38.293C48.7031 38.114 48.9962 38.0753 49.306 38.1762C49.6634 38.2929 49.9774 38.5598 50.2486 38.9759C50.5349 39.4161 50.6597 39.8246 50.6222 40.2024C50.5897 40.5298 50.4283 40.7879 50.1366 40.977C49.8993 41.1307 49.6478 41.1784 49.3827 41.1206C49.1937 41.0789 48.9991 40.9627 48.7986 40.7706L49.1418 40.3734C49.2599 40.4957 49.3832 40.5678 49.5121 40.59C49.6415 40.6122 49.7607 40.5878 49.8697 40.5173C50.0262 40.4159 50.1097 40.2653 50.1196 40.0651C50.13 39.8655 50.0332 39.6088 49.8291 39.2954C49.6177 38.9705 49.4191 38.7705 49.2335 38.696C49.0477 38.6209 48.8779 38.6335 48.7239 38.7333C48.6106 38.8067 48.5417 38.9137 48.5164 39.0538C48.4911 39.1948 48.5218 39.3722 48.6092 39.5854ZM52.3598 38.8019L51.8457 38.0964L51.6177 38.2617C51.4644 38.3729 51.368 38.4586 51.3285 38.5201C51.2894 38.581 51.2725 38.6527 51.2786 38.7341C51.284 38.816 51.3163 38.897 51.3759 38.9787C51.4357 39.061 51.5048 39.118 51.5818 39.1482C51.6597 39.1783 51.7319 39.1835 51.7997 39.1646C51.8669 39.1449 51.9864 39.0726 52.1589 38.9477L52.3598 38.8019ZM51.2661 36.4367L53.0782 38.9246L52.4142 39.4057C52.167 39.585 51.9968 39.6899 51.9033 39.7213C51.7543 39.7709 51.5944 39.7611 51.4244 39.6932C51.2537 39.6247 51.0966 39.4917 50.9521 39.2936C50.8209 39.1135 50.7457 38.938 50.725 38.7672C50.7042 38.5963 50.7277 38.4493 50.794 38.3259C50.8597 38.2031 51.0176 38.0506 51.2673 37.8696L51.538 37.6735L50.8543 36.7351L51.2661 36.4367ZM53.0177 34.8265L55.0804 37.1119L53.686 38.3643L53.3372 37.9774L54.3532 37.0647L53.896 36.5581L52.9518 37.4062L52.6046 37.0215L53.5488 36.1734L52.9872 35.5514L51.9369 36.4948L51.5892 36.1094L53.0177 34.8265ZM55.383 34.1473L54.7336 33.6413L54.4419 34.0137C54.3141 34.1767 54.2412 34.2878 54.2218 34.3471C54.2024 34.4067 54.206 34.4721 54.2315 34.543C54.2575 34.6132 54.3085 34.6784 54.3862 34.7387C54.4659 34.8009 54.544 34.8347 54.6217 34.8414C54.6995 34.8478 54.7702 34.831 54.8325 34.7905C54.8957 34.7498 54.9946 34.6432 55.1287 34.4717L55.383 34.1473ZM56.3491 34.9002L55.7873 34.4625L55.5801 34.7272C55.4559 34.8858 55.3821 34.986 55.3579 35.0283C55.3152 35.1049 55.3026 35.1805 55.3191 35.256C55.3358 35.331 55.3848 35.3999 55.4656 35.463C55.5374 35.519 55.6078 35.5491 55.6772 35.5523C55.7465 35.5556 55.8038 35.5394 55.8501 35.5036C55.8957 35.4675 56.0018 35.3438 56.1675 35.1321L56.3491 34.9002ZM57.0668 34.8154L56.4437 35.6109C56.2739 35.8277 56.1346 35.9651 56.0253 36.0219C55.9169 36.0789 55.7882 36.0989 55.6399 36.0812C55.4927 36.0637 55.3545 36.0051 55.2279 35.9063C55.1107 35.8151 55.0253 35.7067 54.9714 35.5812C54.9176 35.4556 54.9 35.3338 54.9192 35.2161C54.7851 35.3015 54.6413 35.3375 54.4873 35.3247C54.3336 35.313 54.1836 35.2497 54.0376 35.1359C53.8612 34.9983 53.745 34.8387 53.6894 34.6593C53.6336 34.4794 53.637 34.3204 53.6987 34.1823C53.7422 34.0861 53.8782 33.8914 54.1076 33.5986L54.6375 32.922L57.0668 34.8154ZM56.112 30.8268L58.6373 32.5907L58.3585 32.9878L56.6758 31.8123L57.7724 33.8229L57.4791 34.2406L54.954 32.4767L55.2326 32.0797L56.8794 33.23L55.8176 31.2462L56.112 30.8268ZM57.0598 28.4489L59.9182 29.6008L59.7276 30.0715L58.603 29.6182L58.2278 30.5444L59.3524 30.9977L59.1611 31.4703L56.3026 30.3183L56.494 29.8456L57.7439 30.3493L58.1189 29.4233L56.8693 28.9195L57.0598 28.4489ZM58.093 27.0947L60.442 26.6057L60.3327 27.1659L58.6495 27.4353L60.1236 28.2384L60.0229 28.7558L57.8857 27.4755C57.6254 27.3185 57.4475 27.1805 57.3513 27.0618C57.2558 26.9441 57.2215 26.8171 57.2477 26.6828C57.2727 26.5535 57.3079 26.4407 57.3524 26.3442L57.8047 26.432C57.783 26.5131 57.7679 26.5752 57.7595 26.6181C57.7363 26.7382 57.7448 26.8282 57.7861 26.8865C57.8281 26.9456 57.9302 27.0151 58.093 27.0947ZM61.4264 23.3878L61.4715 23.6192C61.2767 23.6436 61.117 23.6177 60.9949 23.5415C60.8716 23.4648 60.7969 23.3545 60.7687 23.2104C60.7407 23.0656 60.7684 22.9355 60.854 22.8184C60.9387 22.702 61.0766 22.6175 61.2663 22.5669L61.3112 22.7975C61.1168 22.8535 61.0367 22.9717 61.0717 23.1517C61.1067 23.331 61.2252 23.4101 61.4264 23.3878ZM57.3452 22.8349L60.3713 22.2482L60.4639 22.7239L58.4474 23.1149L60.6589 23.7248L60.7565 24.2252L57.7304 24.812L57.6376 24.3362L59.6111 23.9536L57.443 23.3375L57.3452 22.8349ZM56.8291 20.3432L59.8552 19.7565L59.948 20.2322L57.9313 20.6231L60.143 21.2331L60.2406 21.7335L57.2142 22.3202L57.1215 21.8445L59.0952 21.4619L56.9271 20.8458L56.8291 20.3432ZM56.1129 18.3124L58.9069 17.0128L59.1221 17.4729L57.9329 18.026C57.9932 18.1228 58.0616 18.1778 58.1359 18.1908C58.2108 18.204 58.3718 18.1924 58.6177 18.1562C58.864 18.1205 59.0532 18.1148 59.1837 18.1386C59.3144 18.1624 59.4099 18.2088 59.468 18.2774C59.5262 18.3459 59.6043 18.4738 59.7028 18.6611L59.284 18.8559L59.2535 18.7911C59.1927 18.6607 59.1207 18.5866 59.0385 18.568C58.957 18.5498 58.8177 18.5569 58.6227 18.5884C58.4269 18.6202 58.2919 18.6316 58.219 18.6229C58.1458 18.6151 58.0627 18.585 57.9706 18.5339C57.9758 18.6547 57.9469 18.7693 57.8821 18.8767C57.8187 18.9845 57.6972 19.135 57.5179 19.3274L56.8995 19.9951L56.6462 19.4532L57.2393 18.8416C57.3917 18.6862 57.4917 18.5662 57.5419 18.482C57.5913 18.3982 57.5938 18.3054 57.5498 18.2042L56.3281 18.7725L56.1129 18.3124ZM56.6026 16.8848L56.7207 17.4004C56.3911 17.5288 56.1109 17.5636 55.8783 17.5041C55.6467 17.4443 55.4568 17.3059 55.3103 17.0891C55.126 16.8167 55.0822 16.5251 55.1777 16.2145C55.2886 15.8558 55.5505 15.5379 55.963 15.2604C56.3992 14.967 56.8063 14.8354 57.1856 14.8662C57.5143 14.8929 57.776 15.0493 57.9706 15.3372C58.1289 15.5711 58.181 15.8209 58.1278 16.0866C58.0894 16.2756 57.976 16.4719 57.787 16.6751L57.3829 16.3399C57.5035 16.2199 57.5737 16.0957 57.5938 15.9666C57.6137 15.8372 57.5872 15.7188 57.5145 15.6114C57.4102 15.457 57.2578 15.3763 57.0569 15.3699C56.8566 15.3629 56.601 15.4641 56.2906 15.673C55.9684 15.8897 55.7715 16.0913 55.7002 16.2777C55.6282 16.4643 55.6435 16.6334 55.7465 16.7853C55.8219 16.897 55.9303 16.9639 56.0714 16.9866C56.2129 17.0094 56.3904 16.9757 56.6026 16.8848ZM53.2467 14.3562L55.5735 12.3386L56.8045 13.7511L56.4107 14.0926L55.5135 13.0631L54.9978 13.5104L55.8314 14.4669L55.4396 14.8065L54.6063 13.8499L53.9728 14.3991L54.9 15.4632L54.5079 15.8033L53.2467 14.3562ZM52.6603 11.1781L53.3833 10.3486L53.7673 10.6816L53.2306 11.2976C53.1184 11.4263 53.0405 11.5266 52.9974 11.5992C52.9529 11.6718 52.9383 11.752 52.9516 11.8394C52.9653 11.9272 53.0268 12.0184 53.1356 12.1127C53.2986 12.2542 53.4654 12.3249 53.6364 12.325L54.5083 11.3244L54.8926 11.6574L52.8701 13.9783L52.486 13.6452L53.3002 12.7109C53.0769 12.6625 52.889 12.5715 52.7366 12.4395C52.5255 12.2563 52.4126 12.0541 52.3984 11.8333C52.3842 11.613 52.4716 11.3947 52.6603 11.1781ZM49.3816 11.1805L51.237 8.72457L51.6249 9.01621L50.3888 10.6528L52.4413 9.62985L52.8495 9.93674L50.9941 12.3927L50.6062 12.1011L51.8159 10.4993L49.7916 11.4887L49.3816 11.1805ZM46.8354 9.65048L48.4231 7.01442L49.0772 7.40655L48.3871 9.44039L49.8598 7.8756L50.5157 8.26875L48.9278 10.9047L48.5224 10.6616L49.7722 8.58665L48.0917 10.4035L47.6698 10.1505L48.4926 7.81956L47.2426 9.89455L46.8354 9.65048ZM45.3571 7.33964C45.2072 7.66024 45.1561 7.9288 45.2028 8.14555C45.2502 8.36284 45.3634 8.51345 45.5443 8.59768C45.7259 8.68214 45.9134 8.67214 46.1074 8.56883C46.3013 8.46552 46.4747 8.24913 46.6289 7.91943C46.7799 7.59614 46.8336 7.33054 46.7897 7.1212C46.7461 6.91289 46.6299 6.76483 46.4419 6.67742C46.2539 6.58999 46.064 6.59641 45.8734 6.69742C45.6819 6.79881 45.5099 7.01262 45.3571 7.33964ZM44.872 7.13696C45.0274 6.80471 45.2039 6.55422 45.4031 6.38553C45.6018 6.21632 45.8054 6.11594 46.0134 6.08468C46.2213 6.05326 46.4385 6.09045 46.6648 6.19569C46.9927 6.34823 47.2011 6.59679 47.2912 6.94289C47.3807 7.28863 47.3178 7.6924 47.1022 8.15388C46.8844 8.61973 46.6045 8.93353 46.2634 9.09414C45.963 9.2372 45.6488 9.2317 45.3196 9.07851C44.9878 8.92416 44.78 8.68766 44.6952 8.36924C44.599 8.00544 44.6582 7.59448 44.872 7.13696ZM41.9121 7.71549L42.9159 4.80779L43.397 4.97303L43.0021 6.11711L43.9489 6.44231L44.3438 5.29823L44.827 5.46424L43.8233 8.37194L43.3401 8.20593L43.7789 6.93442L42.8322 6.60922L42.3934 7.88071L41.9121 7.71549ZM40.063 5.63293C39.9711 5.97455 39.9676 6.24799 40.0513 6.45335C40.1357 6.65909 40.2736 6.78778 40.4663 6.83931C40.6599 6.89111 40.8427 6.84881 41.0159 6.71343C41.1889 6.57807 41.3219 6.33501 41.4164 5.98353C41.5089 5.63908 41.5154 5.36809 41.4358 5.16967C41.3565 4.97199 41.2163 4.84637 41.0159 4.79292C40.8156 4.73934 40.6298 4.77855 40.4596 4.91098C40.2887 5.04391 40.1565 5.2844 40.063 5.63293ZM39.55 5.5173C39.6451 5.16325 39.7754 4.88585 39.9422 4.68524C40.1083 4.48423 40.2914 4.35016 40.4908 4.28324C40.6901 4.21644 40.9105 4.21529 41.1515 4.27978C41.501 4.37322 41.7497 4.58191 41.8986 4.90727C42.047 5.23222 42.0553 5.64063 41.9232 6.1325C41.7898 6.62895 41.5689 6.98647 41.261 7.20376C40.9899 7.39669 40.6795 7.44565 40.3286 7.35182C39.9751 7.25734 39.7292 7.06043 39.5903 6.76149C39.4323 6.41988 39.419 6.00493 39.55 5.5173ZM37.153 6.60832L37.7412 3.58949L38.2408 3.68641L37.9903 4.97109C38.1043 4.97943 38.1892 4.95636 38.2432 4.90418C38.2982 4.85137 38.3833 4.71472 38.4985 4.495C38.6145 4.27516 38.7209 4.11928 38.817 4.02775C38.9131 3.93636 39.0068 3.88663 39.0966 3.87996C39.1864 3.8733 39.336 3.88559 39.5457 3.91611L39.4576 4.36874L39.3872 4.35502C39.2456 4.32759 39.1433 4.34207 39.0798 4.39759C39.0172 4.45259 38.9411 4.56898 38.8519 4.74497C38.7626 4.92175 38.6926 5.03738 38.6426 5.09109C38.5933 5.14557 38.52 5.19492 38.4244 5.23913C38.5254 5.30618 38.6013 5.39681 38.6506 5.51205C38.7005 5.62678 38.7513 5.81318 38.8019 6.07096L38.9801 6.9625L38.3915 6.84841L38.2442 6.0102C38.2077 5.79599 38.1691 5.64473 38.1304 5.55487C38.0914 5.46552 38.0177 5.40899 37.9097 5.38514L37.6525 6.7051L37.153 6.60832ZM35.4951 5.18517L35.5316 4.66576L36.3222 4.72101C36.315 4.46284 36.2615 4.26029 36.1625 4.11404C36.0634 3.96726 35.93 3.8883 35.764 3.87676C35.4926 3.85778 35.3002 4.01521 35.1869 4.34964L34.6953 4.17685C34.7728 3.8901 34.9066 3.67614 35.0973 3.53375C35.2879 3.39141 35.5166 3.3297 35.7836 3.34839C36.1389 3.37317 36.4124 3.53645 36.6041 3.83983C36.7957 4.14248 36.8744 4.54065 36.8399 5.03276C36.8065 5.50847 36.6761 5.88187 36.4484 6.15236C36.2207 6.42359 35.9344 6.54654 35.5887 6.52244C35.0143 6.48231 34.6829 6.12903 34.5965 5.46271L35.12 5.30388C35.1302 5.51642 35.182 5.68216 35.2758 5.80137C35.3696 5.92058 35.4917 5.98597 35.6428 5.99648C35.977 6.01982 36.1913 5.76766 36.2857 5.2403L35.4951 5.18517ZM31.1112 2.37206L31.3465 2.35156C31.3506 2.54751 31.3081 2.70291 31.2193 2.81619C31.13 2.93038 31.0121 2.99322 30.8655 3.00583C30.7184 3.01889 30.5915 2.97745 30.4836 2.88038C30.3764 2.78421 30.3066 2.63849 30.276 2.44503L30.5106 2.42453C30.546 2.62341 30.6556 2.7153 30.8386 2.6993C31.0211 2.68331 31.1124 2.57408 31.1112 2.37206ZM30.1333 6.36323L29.8646 3.29975L30.3487 3.2574L30.5277 5.29888L31.3669 3.16844L31.8761 3.12407L32.1448 6.18761L31.6607 6.2299L31.4854 4.23196L30.6446 6.31862L30.1333 6.36323ZM29.1683 6.40143L28.8996 3.33781L29.4066 3.29366L29.6753 6.3572L29.1683 6.40143ZM27.0534 5.24913L27.1242 6.05725L27.6605 6.01045C27.8 5.99826 27.9 5.98034 27.9605 5.95624C28.0212 5.93225 28.0716 5.88252 28.1127 5.80919C28.153 5.73536 28.1696 5.65331 28.1618 5.56282C28.1379 5.29107 27.9544 5.17055 27.6104 5.20055L27.0534 5.24913ZM26.6628 6.62012L26.3941 3.5565L26.901 3.51236L27.0079 4.73062L27.7286 4.66768C27.9968 4.64423 28.2168 4.71202 28.3891 4.87022C28.5615 5.02839 28.6601 5.24836 28.6848 5.53012C28.705 5.75971 28.6596 5.97353 28.5487 6.17222C28.4379 6.37105 28.2201 6.48422 27.8947 6.51256L26.6628 6.62012ZM24.1015 7.02379L23.5134 4.00507L24.0129 3.90816L24.2443 5.09596L25.2272 4.90533L24.9958 3.71767L25.4975 3.62037L26.0856 6.63909L25.584 6.73638L25.3268 5.41642L24.3439 5.60692L24.601 6.92699L24.1015 7.02379ZM21.6336 7.64639L20.7839 4.69024L21.273 4.55038L21.6074 5.71345L22.5699 5.43809L22.2355 4.27505L22.7268 4.13455L23.5766 7.09057L23.0853 7.23106L22.7137 5.93853L21.7512 6.21389L22.1228 7.50641L21.6336 7.64639ZM19.4435 8.3982L18.3387 5.5273L20.0904 4.8565L20.2774 5.34246L19.0008 5.83124L19.2457 6.46769L20.4318 6.01353L20.6178 6.49668L19.4317 6.95097L19.7324 7.7324L21.0519 7.2271L21.2381 7.71112L19.4435 8.3982ZM17.005 7.94686L17.327 8.70342L17.7631 8.51872C17.954 8.43796 18.072 8.37629 18.1178 8.33361C18.1636 8.29079 18.1924 8.23194 18.2045 8.15773C18.2158 8.08364 18.2028 8.00199 18.1644 7.91175C18.1248 7.81869 18.0729 7.75137 18.0084 7.70792C17.9431 7.66459 17.8733 7.64524 17.799 7.65035C17.724 7.65562 17.5858 7.70087 17.385 7.78598L17.005 7.94686ZM16.5259 6.82098L16.8045 7.47552L17.1144 7.34437C17.3002 7.26568 17.4135 7.21376 17.4552 7.18838C17.5298 7.14196 17.5775 7.0821 17.5998 7.00802C17.6214 6.93431 17.6123 6.85034 17.5722 6.75611C17.5366 6.67242 17.4898 6.61204 17.4306 6.57564C17.3715 6.53936 17.3134 6.52578 17.2557 6.53461C17.1981 6.54422 17.0454 6.60114 16.7976 6.706L16.5259 6.82098ZM15.8571 6.54821L16.7887 6.15376C17.0424 6.04621 17.2312 5.99353 17.3543 5.9966C17.4769 5.99916 17.599 6.04392 17.7203 6.13108C17.8405 6.21774 17.9328 6.3358 17.9958 6.48346C18.0537 6.61985 18.0758 6.756 18.0618 6.89174C18.0478 7.02762 18.0041 7.14261 17.9301 7.23631C18.0889 7.22644 18.2322 7.26453 18.3606 7.35027C18.4895 7.43489 18.5899 7.56281 18.6622 7.73279C18.7497 7.93853 18.7739 8.1344 18.735 8.31809C18.6965 8.5023 18.6162 8.63984 18.495 8.73074C18.4103 8.7938 18.1968 8.89829 17.8538 9.04351L17.0615 9.37898L15.8571 6.54821ZM15.6921 10.1103L14.4504 7.87585L13.7937 8.23899L13.5408 7.7838L15.2973 6.81253L15.5503 7.26773L14.8955 7.62972L16.1371 9.86417L15.6921 10.1103ZM13.6945 9.9284L14.2091 9.80136C14.3437 10.1279 14.3834 10.4068 14.3279 10.6397C14.272 10.872 14.1365 11.0636 13.9218 11.2136C13.6521 11.4021 13.3603 11.451 13.0474 11.3609C12.686 11.2568 12.3628 11.0011 12.0775 10.5946C11.7758 10.1646 11.6369 9.76073 11.661 9.38193C11.682 9.05351 11.8342 8.78995 12.1194 8.59075C12.3511 8.42886 12.6006 8.37257 12.8678 8.42104C13.058 8.45602 13.2565 8.5655 13.4636 8.75047L13.1346 9.15952C13.0124 9.04132 12.8866 8.9734 12.7568 8.95583C12.6268 8.93815 12.5085 8.9666 12.4021 9.04094C12.2493 9.14772 12.171 9.30105 12.1681 9.50152C12.1646 9.70149 12.2704 9.95442 12.4854 10.2607C12.7081 10.5781 12.9137 10.7708 13.1017 10.8389C13.2901 10.9075 13.4592 10.889 13.6097 10.7839C13.7203 10.7067 13.7854 10.5973 13.8058 10.4564C13.8262 10.3145 13.7893 10.1384 13.6945 9.9284ZM9.99611 10.9051L10.5344 11.5924L10.7566 11.4192C10.906 11.3027 10.9992 11.2136 11.0366 11.1508C11.0735 11.0886 11.088 11.0165 11.079 10.9353C11.0706 10.8537 11.0356 10.7738 10.9732 10.6942C10.9104 10.6141 10.8395 10.5595 10.7615 10.532C10.6826 10.5046 10.6102 10.5019 10.5431 10.5233C10.4767 10.5451 10.3598 10.6216 10.1918 10.7525L9.99611 10.9051ZM11.1718 13.2308L9.27391 10.8075L9.92043 10.3036C10.1614 10.1158 10.3279 10.005 10.42 9.97043C10.5674 9.9157 10.7276 9.91994 10.8998 9.98185C11.0726 10.0443 11.2345 10.1718 11.3855 10.3647C11.523 10.5401 11.6045 10.7129 11.6311 10.8829C11.6577 11.053 11.6395 11.2008 11.5775 11.3263C11.5162 11.4514 11.3638 11.6092 11.1205 11.7988L10.857 12.0043L11.5728 12.9183L11.1718 13.2308ZM9.43609 13.2412L8.36229 12.7162L8.96564 13.7444L9.43609 13.2412ZM10.9688 13.3854L10.5903 13.7902L9.92709 13.4749L9.23896 14.211L9.6093 14.8395L9.23921 15.2355L7.65579 12.4203L8.02432 12.0259L10.9688 13.3854ZM6.58174 14.4646L6.16062 15.0873C6.91456 15.5946 7.44078 16.0316 7.73662 16.3982L8.27401 15.6033L6.58174 14.4646ZM8.55865 15.1824L8.681 15.0015L9.67008 15.6669L9.43609 16.013L8.87966 15.6385L7.98694 16.9587L8.54336 17.3332L8.30948 17.6792L7.32037 17.0137L7.43796 16.8398C7.30574 16.6515 7.12467 16.4528 6.89709 16.2453C6.66849 16.038 6.30352 15.7647 5.80132 15.4268L5.45976 15.1969L6.43551 13.7539L8.55865 15.1824ZM6.37098 18.0105L3.97799 17.8348L4.23768 17.3263L5.93008 17.53L4.735 16.3527L4.97479 15.8831L6.67542 17.7015C6.88232 17.9239 7.01519 18.1055 7.07482 18.246C7.13417 18.3854 7.13212 18.517 7.06981 18.6389C7.00991 18.7562 6.94488 18.855 6.87564 18.9355L6.46506 18.7268C6.50836 18.6548 6.53984 18.5993 6.55977 18.5603C6.61541 18.4512 6.63187 18.3623 6.60834 18.295C6.58443 18.2265 6.50554 18.1318 6.37098 18.0105ZM5.32342 19.6408L5.5974 19.1881C5.92405 19.324 6.14983 19.4932 6.27563 19.697C6.4008 19.9008 6.44077 20.1318 6.39527 20.3892C6.33808 20.7127 6.16654 20.9531 5.88152 21.1101C5.55204 21.2915 5.14223 21.3386 4.65236 21.2524C4.13425 21.1613 3.74975 20.9737 3.49828 20.6888C3.28031 20.4418 3.20106 20.148 3.26157 19.806C3.31057 19.5282 3.44725 19.3123 3.67048 19.1581C3.82981 19.0487 4.04789 18.9861 4.32532 18.9708L4.38265 19.492C4.21237 19.4947 4.07539 19.5355 3.97103 19.6146C3.8667 19.6937 3.80321 19.7972 3.78059 19.9249C3.74821 20.1082 3.80168 20.2718 3.94161 20.4157C4.08092 20.5594 4.3351 20.6638 4.70415 20.7286C5.08658 20.7959 5.36866 20.7874 5.54985 20.7029C5.73155 20.6185 5.83808 20.4861 5.87009 20.3055C5.89346 20.173 5.86199 20.0496 5.77653 19.9357C5.69044 19.8209 5.5393 19.7225 5.32342 19.6408ZM4.24655 23.4497C4.59569 23.5111 4.86902 23.4909 5.0668 23.3898C5.26496 23.2879 5.38151 23.1397 5.41621 22.9437C5.45089 22.7468 5.39282 22.5688 5.24245 22.4085C5.09224 22.2484 4.83793 22.1374 4.47876 22.0742C4.12666 22.0123 3.8555 22.0293 3.66429 22.1258C3.47373 22.2218 3.36046 22.372 3.32456 22.5758C3.28844 22.7795 3.34375 22.9608 3.49107 23.1183C3.63873 23.2766 3.89034 23.387 4.24655 23.4497ZM4.17574 23.9695C3.81387 23.9059 3.52551 23.8007 3.31057 23.6524C3.0954 23.5047 2.94548 23.3343 2.86149 23.1422C2.77728 22.95 2.75696 22.7311 2.80031 22.4858C2.8633 22.1303 3.05002 21.865 3.36182 21.6888C3.67341 21.513 4.08053 21.4691 4.58323 21.5575C5.09071 21.6467 5.46697 21.8352 5.71074 22.1222C5.92715 22.3748 6.00307 22.6789 5.93999 23.0358C5.87637 23.3955 5.7011 23.6568 5.41479 23.8211C5.08737 24.0078 4.67422 24.0572 4.17574 23.9695ZM5.96645 26.1878L2.97551 26.8221L2.60546 25.0858L3.11595 24.9776L3.38011 26.2173L5.8607 25.6913L5.96645 26.1878ZM2.57634 29.1514L2.52734 28.9209C2.72151 28.893 2.88136 28.916 3.00509 28.9901C3.12949 29.0647 3.20626 29.1737 3.23696 29.3172C3.26767 29.4615 3.24193 29.5921 3.15862 29.7108C3.07598 29.8286 2.93961 29.9154 2.75064 29.9694L2.70164 29.7396C2.89536 29.6803 2.97325 29.5606 2.9351 29.3812C2.89717 29.2025 2.77705 29.1255 2.57634 29.1514ZM6.66668 29.6331L3.6512 30.2725L3.55018 29.7983L5.5596 29.3724L3.33766 28.801L3.23132 28.3024L6.24685 27.663L6.34786 28.1372L4.38136 28.554L6.55989 29.1323L6.66668 29.6331ZM7.84467 31.8937L5.14839 33.3847L4.91284 32.9608L6.7096 31.9673L4.41733 32.0689L4.16958 31.6231L6.86586 30.1321L7.10141 30.5561L5.34295 31.5284L7.59589 31.446L7.84467 31.8937ZM9.13641 33.5849L6.70703 35.4781L6.39374 35.0782L7.42769 34.2724C7.34711 34.1915 7.26795 34.1533 7.19279 34.1574C7.11656 34.1612 6.96249 34.2087 6.73094 34.2992C6.49897 34.3892 6.31612 34.4372 6.18338 34.4434C6.05076 34.4494 5.94731 34.4257 5.87522 34.3719C5.80299 34.3181 5.69814 34.211 5.55987 34.0507L5.92419 33.7668L5.96826 33.8232C6.05717 33.9367 6.14391 33.9927 6.22822 33.9923C6.31162 33.9918 6.44564 33.9536 6.62864 33.8791C6.81228 33.8042 6.94116 33.7628 7.01429 33.755C7.08739 33.7462 7.17504 33.7568 7.2763 33.7859C7.24417 33.6694 7.2465 33.5513 7.28517 33.4321C7.32283 33.3127 7.40712 33.1389 7.53845 32.9112L7.99041 32.1218L8.35947 32.593L7.91947 33.322C7.80613 33.5076 7.73583 33.647 7.70589 33.7403C7.6766 33.8331 7.69498 33.9241 7.76077 34.0127L8.82312 33.1848L9.13641 33.5849ZM8.94044 35.0816L8.73419 34.5944C9.03644 34.4107 9.30643 34.328 9.5457 34.3462C9.78446 34.3651 9.99534 34.4685 10.1774 34.6566C10.4062 34.8928 10.5002 35.1725 10.4601 35.4949C10.4135 35.8673 10.2108 36.2258 9.85294 36.5705C9.47452 36.9351 9.09632 37.1351 8.71748 37.1706C8.38902 37.2014 8.10425 37.0925 7.86242 36.8427C7.66593 36.6397 7.5711 36.4027 7.57726 36.1319C7.58228 35.9389 7.65951 35.7262 7.81024 35.4934L8.2667 35.7535C8.16889 35.8924 8.12134 36.027 8.12419 36.1575C8.12687 36.2884 8.17365 36.4004 8.26385 36.4938C8.39352 36.6276 8.55763 36.6806 8.75668 36.6522C8.95509 36.6244 9.18909 36.4805 9.45858 36.2208C9.73793 35.9518 9.89676 35.7191 9.93481 35.5232C9.97323 35.3269 9.92837 35.1631 9.80079 35.0313C9.70698 34.9345 9.58849 34.8873 9.44584 34.8893C9.30218 34.8914 9.13346 34.9554 8.94044 35.0816ZM11.5819 37.7678L12.1116 37.1382L11.7485 36.8343C11.5897 36.7013 11.481 36.6245 11.4221 36.6031C11.3631 36.5818 11.2975 36.583 11.2256 36.6061C11.1543 36.6295 11.0874 36.6781 11.0241 36.7532C10.959 36.8306 10.9225 36.9074 10.913 36.9845C10.9039 37.0621 10.9182 37.133 10.9565 37.1967C10.9954 37.261 11.0986 37.3632 11.2656 37.5031L11.5819 37.7678ZM10.7937 38.7046L11.252 38.16L10.9941 37.9441C10.8395 37.8147 10.7416 37.7374 10.7001 37.7121C10.6247 37.6668 10.5496 37.6516 10.4732 37.6654C10.3977 37.6795 10.3268 37.7258 10.2608 37.8042C10.2022 37.8738 10.1696 37.9429 10.1639 38.012C10.1583 38.0811 10.1726 38.1388 10.2066 38.1861C10.2413 38.2329 10.3614 38.3429 10.5677 38.5155L10.7937 38.7046ZM10.8537 39.4231L10.0785 38.7741C9.86735 38.5973 9.73448 38.4535 9.6814 38.3427C9.62793 38.2325 9.61251 38.1038 9.63527 37.9564C9.65814 37.8101 9.72163 37.6745 9.82494 37.5516C9.92054 37.4381 10.032 37.3567 10.1597 37.3075C10.2873 37.2581 10.41 37.2448 10.5272 37.2681C10.4464 37.1314 10.4153 36.9868 10.4335 36.8337C10.4506 36.6808 10.5194 36.5335 10.6384 36.392C10.7823 36.2208 10.9463 36.1105 11.128 36.0616C11.3101 36.0121 11.4693 36.0211 11.6056 36.0875C11.7003 36.1342 11.8908 36.2766 12.1761 36.5155L12.8354 37.0673L10.8537 39.4231ZM13.9534 39.6562C14.1464 39.3597 14.2346 39.1007 14.2185 38.8796C14.2019 38.658 14.1108 38.493 13.9434 38.3845C13.7754 38.2757 13.5883 38.2594 13.3817 38.3349C13.1753 38.4103 12.9734 38.6005 12.7747 38.9056C12.5801 39.2047 12.4899 39.4603 12.5041 39.6736C12.5183 39.8861 12.6127 40.0487 12.7867 40.1613C12.9606 40.274 13.1495 40.294 13.3524 40.2204C13.5562 40.1467 13.7563 39.9588 13.9534 39.6562ZM14.4054 39.9243C14.2053 40.2317 13.9954 40.4554 13.7746 40.5948C13.5544 40.7347 13.3385 40.8059 13.1283 40.8079C12.9181 40.8101 12.7082 40.7432 12.4989 40.6076C12.1953 40.4109 12.0235 40.1358 11.9827 39.7806C11.9423 39.4258 12.0608 39.0347 12.3389 38.6077C12.6195 38.1766 12.9404 37.9047 13.3005 37.7931C13.6181 37.6931 13.9285 37.7422 14.2332 37.9396C14.5401 38.1384 14.7129 38.4015 14.7524 38.7286C14.7969 39.1021 14.681 39.5009 14.4054 39.9243ZM16.5694 39.3365L15.3669 41.5922L16.0299 41.9438L15.785 42.4034L14.0116 41.4627L14.2565 41.0033L14.9176 41.3539L16.12 39.0982L16.5694 39.3365ZM17.5024 41.0106L17.1091 40.6559C17.3052 40.3621 17.5148 40.1731 17.7394 40.0889C17.9636 40.0052 18.1987 40.0101 18.4433 40.1038C18.7509 40.2216 18.9545 40.4354 19.0548 40.7445C19.1703 41.1016 19.1384 41.5119 18.9602 41.9752C18.7717 42.4652 18.5137 42.8059 18.1853 42.9978C17.9007 43.164 17.5965 43.1856 17.2715 43.0611C17.0074 42.9601 16.821 42.7851 16.7119 42.5371C16.6346 42.3602 16.6146 42.1347 16.6525 41.8601L17.1764 41.9034C17.1466 42.0707 17.1605 42.2126 17.2185 42.3298C17.2764 42.4472 17.3662 42.5291 17.4875 42.5755C17.6617 42.6423 17.833 42.6211 18.0012 42.5115C18.1692 42.4026 18.3204 42.1736 18.4547 41.8246C18.5938 41.463 18.6392 41.1852 18.5906 40.9916C18.5423 40.7974 18.4323 40.6679 18.2608 40.6022C18.1348 40.554 18.0075 40.5612 17.879 40.6232C17.7497 40.6856 17.6239 40.8147 17.5024 41.0106ZM21.1489 42.7582C21.2525 42.42 21.2656 42.147 21.1891 41.9388C21.112 41.7303 20.9788 41.5967 20.7879 41.5385C20.5963 41.4801 20.4119 41.5159 20.2342 41.6453C20.0566 41.7745 19.9151 42.0128 19.8085 42.3607C19.704 42.7018 19.6879 42.9723 19.7605 43.1734C19.8329 43.3737 19.9686 43.5041 20.1669 43.5646C20.3653 43.6251 20.5524 43.5924 20.727 43.4659C20.9025 43.339 21.0431 43.1033 21.1489 42.7582ZM21.6574 42.8916C21.55 43.2422 21.4101 43.5149 21.2363 43.7096C21.0633 43.9047 20.8756 44.0324 20.6741 44.0922C20.4726 44.1521 20.2523 44.1454 20.0136 44.0726C19.6675 43.9671 19.4263 43.7498 19.2889 43.4196C19.1521 43.0897 19.1578 42.6811 19.3072 42.1943C19.4578 41.7027 19.6911 41.3531 20.0065 41.1467C20.2841 40.9633 20.5959 40.9252 20.9434 41.0311C21.2934 41.1379 21.5322 41.3432 21.6607 41.6468C21.8066 41.9937 21.8054 42.4089 21.6574 42.8916ZM23.1855 44.3805L23.3971 43.5342L23.1235 43.4662C22.9395 43.4204 22.8117 43.4019 22.739 43.4112C22.6672 43.4205 22.6014 43.4536 22.5427 43.5107C22.4833 43.5674 22.4419 43.6442 22.4174 43.7422C22.3927 43.8409 22.3933 43.9303 22.4197 44.0085C22.4466 44.0874 22.4889 44.146 22.5471 44.1854C22.6053 44.2243 22.7377 44.2691 22.9446 44.3206L23.1855 44.3805ZM24.2989 42.0244L23.5532 45.0083L22.757 44.8102C22.4604 44.7365 22.2703 44.6738 22.1862 44.6226C22.0521 44.5405 21.9571 44.4121 21.8999 44.2385C21.8428 44.0642 21.8438 43.8586 21.9032 43.6209C21.9573 43.4049 22.0435 43.2345 22.1614 43.1089C22.2795 42.9833 22.4073 42.9066 22.5447 42.878C22.6813 42.8492 22.8998 42.8719 23.1993 42.9464L23.5239 43.0271L23.8052 41.9016L24.2989 42.0244Z" fill="#FFF100"/>
<path fill-rule="evenodd" clip-rule="evenodd" d="M28.8164 45.4844V43.1608H29.4003C29.4815 43.1579 29.5627 43.165 29.6422 43.1817C29.7162 43.1994 29.784 43.237 29.8382 43.2905C29.898 43.355 29.9423 43.4323 29.9675 43.5166C30.0013 43.6193 30.0182 43.7267 30.0176 43.8348C30.0233 44.0113 29.9784 44.1857 29.8883 44.3372C29.781 44.4853 29.6023 44.5638 29.4212 44.5424H29.0041V45.4886L28.8164 45.4844ZM29.0291 44.2661H29.4462C29.5538 44.2769 29.6602 44.2366 29.734 44.1572C29.7956 44.0647 29.825 43.9542 29.8174 43.8432C29.8201 43.7567 29.8029 43.6708 29.7673 43.592C29.7414 43.5309 29.6939 43.4817 29.6339 43.4538C29.5689 43.4439 29.5028 43.4439 29.4378 43.4538H29.0208L29.0291 44.2661Z" fill="#FFE600"/>
<path fill-rule="evenodd" clip-rule="evenodd" d="M30.5296 43.1621H30.7214V45.0043L31.5555 43.1621H31.7641V45.4857H31.5722V43.6478L30.7381 45.4857H30.5254L30.5296 43.1621Z" fill="#FFE600"/>
<path fill-rule="evenodd" clip-rule="evenodd" d="M32.3574 45.4857V43.1621H32.5701V44.1167H33.4043V43.1621H33.617V45.4857H33.4043V44.3888H32.5701V45.4857H32.3574Z" fill="#FFE600"/>
<path fill-rule="evenodd" clip-rule="evenodd" d="M34.0098 45.4857L34.6228 44.2842L34.0807 43.1621H34.3351L34.627 43.7608C34.6854 43.8822 34.7271 43.9785 34.7521 44.0413C34.7897 43.9576 34.8314 43.8697 34.8814 43.7776L35.1984 43.1621H35.4278L34.8773 44.2674L35.4737 45.4857H35.2151L34.798 44.6484L34.7313 44.506L34.6604 44.6651L34.2433 45.4732L34.0098 45.4857Z" fill="#FFE600"/>
<path fill-rule="evenodd" clip-rule="evenodd" d="M28.5678 42.7051C28.1486 43.1597 27.9226 43.7605 27.938 44.3798C27.9282 44.9981 28.1534 45.5969 28.5678 46.0544H28.2216C27.791 45.6053 27.5555 45.003 27.5668 44.3798C27.56 43.7573 27.7948 43.1567 28.2216 42.7051H28.5678Z" fill="#FFE600"/>
<path fill-rule="evenodd" clip-rule="evenodd" d="M36.0786 42.7051C36.5054 43.1567 36.7402 43.7573 36.7334 44.3798C36.7447 45.003 36.5092 45.6053 36.0786 46.0544H35.7324C36.1468 45.5969 36.3719 44.9981 36.3622 44.3798C36.3776 43.7605 36.1516 43.1597 35.7324 42.7051H36.0786Z" fill="#FFE600"/>
</svg>
